<?xml version="1.0" encoding="UTF-8" standalone="no"?>
<!-- Created with Inkscape (http://www.inkscape.org/) -->

<svg
   width="424.23947"
   height="133.43384"
   viewBox="0 0 424.23949 133.43383"
   version="1.1"
   id="svg1"
   xml:space="preserve"
   xmlns:xlink="http://www.w3.org/1999/xlink"
   xmlns="http://www.w3.org/2000/svg"
   xmlns:svg="http://www.w3.org/2000/svg"><defs
     id="defs1"><linearGradient
       id="swatch162"
       gradientTransform="translate(-445.60937,787.19531)"><stop
         style="stop-color:#dc2626;stop-opacity:1;"
         offset="0"
         id="stop162" /></linearGradient><linearGradient
       id="swatch37"
       gradientTransform="translate(-86,3.5)"><stop
         style="stop-color:#1a6de8;stop-opacity:1;"
         offset="0"
         id="stop37" /></linearGradient><linearGradient
       id="swatch18"
       gradientTransform="matrix(1,0,0,0.57573593,91.873629,132.32583)"><stop
         style="stop-color:#2e2e2e;stop-opacity:1;"
         offset="0"
         id="stop18" /></linearGradient><linearGradient
       id="swatch17"><stop
         style="stop-color:#fafafa;stop-opacity:1;"
         offset="0"
         id="stop17" /></linearGradient><linearGradient
       id="swatch12"
       gradientTransform="matrix(1.3653394,0,0,1.50615,936.14791,-1177.6613)"><stop
         style="stop-color:#7e7e7e;stop-opacity:1;"
         offset="0"
         id="stop12" /></linearGradient><linearGradient
       id="swatch7"><stop
         style="stop-color:#63c458;stop-opacity:1;"
         offset="0"
         id="stop7" /></linearGradient><linearGradient
       id="swatch6"><stop
         style="stop-color:#f7bd51;stop-opacity:1;"
         offset="0"
         id="stop6" /></linearGradient><linearGradient
       id="swatch5"><stop
         style="stop-color:#ed6b5e;stop-opacity:1;"
         offset="0"
         id="stop5" /></linearGradient><linearGradient
       id="swatch4"
       gradientTransform="matrix(0.91177579,0,0,0.91177579,385.36877,86.373439)"><stop
         style="stop-color:#eaeaec;stop-opacity:1;"
         offset="0"
         id="stop4" /></linearGradient><linearGradient
       id="swatch2"
       gradientTransform="matrix(0.51709503,0,0,0.51709503,-1388.7384,3899.5771)"><stop
         style="stop-color:#ffffff;stop-opacity:1;"
         offset="0"
         id="stop2" /></linearGradient><linearGradient
       id="swatch1"
       gradientTransform="matrix(1,0,0,0.62586603,0.21001578,1283.257)"><stop
         style="stop-color:#151419;stop-opacity:1;"
         offset="0"
         id="stop1" /></linearGradient><linearGradient
       xlink:href="#swatch12"
       id="linearGradient91"
       x1="2834.9746"
       y1="233.90576"
       x2="2881.1055"
       y2="233.90576"
       gradientUnits="userSpaceOnUse" /><linearGradient
       xlink:href="#swatch12"
       id="linearGradient92"
       x1="2812.6348"
       y1="247.27148"
       x2="2901.1621"
       y2="247.27148"
       gradientUnits="userSpaceOnUse" /><linearGradient
       xlink:href="#swatch12"
       id="linearGradient93"
       x1="2815.0068"
       y1="261.49097"
       x2="2900.8774"
       y2="261.49097"
       gradientUnits="userSpaceOnUse" /><linearGradient
       xlink:href="#swatch12"
       id="linearGradient94"
       x1="2835.5322"
       y1="245.3625"
       x2="2881.1777"
       y2="245.3625"
       gradientUnits="userSpaceOnUse" /><linearGradient
       xlink:href="#swatch5"
       id="linearGradient132"
       x1="2689.9778"
       y1="264.74435"
       x2="2713.126"
       y2="264.74435"
       gradientUnits="userSpaceOnUse" /><linearGradient
       xlink:href="#swatch5"
       id="linearGradient133"
       x1="2688.0708"
       y1="275.05167"
       x2="2691.7107"
       y2="275.05167"
       gradientUnits="userSpaceOnUse" /><linearGradient
       xlink:href="#swatch5"
       id="linearGradient135"
       gradientUnits="userSpaceOnUse"
       x1="2689.9778"
       y1="264.74435"
       x2="2713.126"
       y2="264.74435" /><linearGradient
       xlink:href="#swatch5"
       id="linearGradient136"
       gradientUnits="userSpaceOnUse"
       x1="2688.0708"
       y1="275.05167"
       x2="2691.7107"
       y2="275.05167" /><linearGradient
       xlink:href="#swatch1"
       id="linearGradient4"
       gradientUnits="userSpaceOnUse"
       x1="270.55978"
       y1="298.15283"
       x2="382.01578"
       y2="298.15283" /></defs><g
     id="layer2"
     transform="translate(-2499.2718,-176.35715)"><g
       id="g18"><path
         id="path142"
         style="fill:url(#swatch4);stroke-width:0.911775;stroke-dasharray:none"
         d="m 2539.1122,188.70281 a 39.839342,39.839342 0 0 0 -39.8403,39.84033 39.839342,39.839342 0 0 0 39.8403,39.83855 39.839342,39.839342 0 0 0 13.9081,-2.61601 35.04673,35.04673 0 0 0 0,0.007 35.04673,35.04673 0 0 0 35.0482,35.04638 35.04673,35.04673 0 0 0 35.0464,-35.04638 35.04673,35.04673 0 0 0 -35.0464,-35.04639 35.04673,35.04673 0 0 0 -9.3671,1.30891 39.839342,39.839342 0 0 0 0.2494,-3.49218 39.839342,39.839342 0 0 0 -39.8386,-39.84033 z" /><path
         d="m 278.01577,368.03881 v -69.12 h 7.872 v 69.12 z m 7.008,-35.904 35.904,-33.216 h 11.04 l -36.672,33.216 z m 37.44,35.904 -37.632,-35.904 h 10.464 l 38.592,35.904 z m 43.15193,0 q -0.384,-1.632 -0.576,-3.744 -0.096,-2.112 -0.096,-5.376 h -0.48 v -23.424 q 0,-5.568 -2.592,-8.16 -2.496,-2.688 -8.16,-2.688 -5.568,0 -8.928,2.304 -3.264,2.208 -3.648,6.336 h -7.392 q 0.48,-7.104 5.952,-11.136 5.472,-4.032 14.304,-4.032 9.12,0 13.536,4.32 4.416,4.32 4.416,12.96 v 23.52 q 0,2.112 0.288,4.416 0.288,2.208 0.768,4.704 z m -16.8,0.96 q -7.584,0 -12.096,-3.648 -4.416,-3.744 -4.416,-10.176 0,-6.432 4.416,-9.984 4.416,-3.552 12.864,-4.992 l 17.088,-2.88 v 6.336 l -15.936,2.496 q -5.376,0.864 -8.16,2.88 -2.784,2.016 -2.784,5.856 0,3.744 2.496,5.664 2.592,1.92 7.584,1.92 6.432,0 10.464,-2.88 4.128,-2.976 4.128,-7.68 l 1.248,6.816 q -1.536,4.896 -6.048,7.584 -4.416,2.688 -10.848,2.688 z m 31.92009,-0.96 v -48.96 h 7.2 v 11.52 h 0.48 v 37.44 z m 33.024,0 v -32.448 q 0,-5.568 -2.496,-8.16 -2.496,-2.592 -7.2,-2.592 -4.416,0 -7.968,2.112 -3.552,2.112 -5.664,5.856 -2.016,3.744 -2.016,8.736 l -1.248,-11.616 q 2.496,-5.472 7.488,-8.64 4.992,-3.168 10.848,-3.168 7.104,0 11.52,4.224 4.416,4.128 4.416,11.232 v 34.464 z m 33.024,0 v -32.448 q 0,-5.568 -2.496,-8.16 -2.496,-2.592 -7.2,-2.592 -4.416,0 -7.968,2.112 -3.552,2.112 -5.664,5.856 -2.016,3.744 -2.016,8.736 l -1.92,-11.616 q 2.496,-5.472 7.68,-8.64 5.184,-3.168 11.136,-3.168 7.104,0 11.616,4.224 4.512,4.128 4.512,11.232 v 34.464 z m 16.46408,0 v -48.96 h 7.68 v 48.96 z m -0.576,-60.096 v -9.024 h 8.832 v 9.024 z m 17.23198,60.096 v -9.888 h 9.888 v 9.888 z m 8.59199,20.64 q -1.824,0 -2.976,-0.192 -1.152,-0.192 -1.92,-0.48 v -6.048 q 0.672,0.192 1.92,0.384 1.152,0.192 2.496,0.192 3.744,0 5.184,-1.632 1.44,-1.632 1.44,-4.896 v -56.928 h 7.68 v 57.312 q 0,5.952 -3.264,9.12 -3.264,3.168 -10.56,3.168 z m 5.568,-80.736 v -9.024 h 8.832 v 9.024 z m 34.0319,61.056 q -9.024,0 -14.4,-4.128 -5.376,-4.224 -6.144,-11.904 h 7.392 q 0.672,4.704 4.128,7.2 3.456,2.496 9.216,2.496 5.088,0 7.968,-1.92 2.88,-1.92 2.88,-5.472 0,-2.496 -1.632,-4.32 -1.632,-1.92 -6.528,-3.168 l -7.872,-2.016 q -6.72,-1.728 -10.08,-5.28 -3.36,-3.648 -3.36,-8.64 0,-6.336 4.704,-9.984 4.704,-3.744 12.768,-3.744 7.968,0 12.96,3.84 4.992,3.84 5.664,10.656 h -7.392 q -0.672,-3.936 -3.648,-6.048 -2.976,-2.112 -7.872,-2.112 -4.704,0 -7.296,1.824 -2.592,1.728 -2.592,4.992 0,2.496 1.824,4.32 1.92,1.824 6.336,3.072 l 7.68,2.112 q 6.816,1.824 10.272,5.568 3.456,3.744 3.456,9.024 0,6.432 -4.896,10.08 -4.896,3.552 -13.536,3.552 z"
         id="text229-6"
         style="font-size:96px;font-family:'Instrument Sans';-inkscape-font-specification:'Instrument Sans';letter-spacing:-6px;white-space:pre;fill:url(#linearGradient4)"
         transform="translate(2376.9838,-88.480037)"
         aria-label="Kami.js" /><g
         id="g136"
         transform="translate(-303.04325,7.8997086)"><g
           id="g94"
           transform="matrix(1.4046786,0,0,1.4046786,-1145.8272,-98.484202)"><path
             style="fill:url(#swatch2);stroke:url(#linearGradient92);stroke-width:1;stroke-dasharray:none"
             d="m 2835.1016,216.61035 -22.4668,21.69824 46.0068,39.62403 42.5205,-39.61621 -21.1523,-20.32227"
             id="path91" /><path
             style="fill:url(#swatch2);stroke:url(#linearGradient91);stroke-width:1;stroke-dasharray:none"
             d="m 2834.9746,213.98926 22.0693,-23.24512 24.0616,22.81348 -22.7608,63.50976 z"
             id="path90" /><path
             style="fill:none;stroke:url(#linearGradient93);stroke-width:1;stroke-dasharray:none"
             d="m 2815.0068,240.7168 43.6568,43.59228 42.2138,-45.63623"
             id="path92" /><path
             style="fill:url(#swatch2);stroke:url(#linearGradient94);stroke-width:1;stroke-dasharray:none"
             d="m 2835.5322,214.30713 20.4522,-0.0103 2.7187,62.61572 1.3824,-63.1001 21.0922,0.22852"
             id="path93" /></g><g
           id="g133"
           transform="matrix(1.5610939,0,0,1.5610939,-1378.2147,-190.03341)"><path
             style="fill:none;stroke:url(#linearGradient132);stroke-width:1;stroke-dasharray:none"
             d="m 2689.9778,273.74838 c 0,0 1.5738,-19.63326 23.1481,-17.89968"
             id="path132" /><path
             style="fill:url(#linearGradient133);stroke-width:1;stroke-dasharray:none"
             d="m 2688.0709,273.44765 3.6398,0.29762 -1.7848,2.91043 z"
             id="path133" /></g><g
           id="g135"
           transform="matrix(-1.5610939,0,0,1.5610939,7111.9899,-189.10118)"><path
             style="fill:none;stroke:url(#linearGradient135);stroke-width:1;stroke-dasharray:none"
             d="m 2689.9778,273.74838 c 0,0 1.5738,-19.63326 23.1481,-17.89968"
             id="path134" /><path
             style="fill:url(#linearGradient136);stroke-width:1;stroke-dasharray:none"
             d="m 2688.0709,273.44765 3.6398,0.29762 -1.7848,2.91043 z"
             id="path135" /></g></g></g></g></svg>
