<?xml version="1.0" encoding="UTF-8" standalone="no"?>
<!-- Created with Inkscape (http://www.inkscape.org/) -->

<svg
   width="424.23947"
   height="133.43384"
   viewBox="0 0 424.23949 133.43383"
   version="1.1"
   id="svg1"
   xml:space="preserve"
   xmlns:xlink="http://www.w3.org/1999/xlink"
   xmlns="http://www.w3.org/2000/svg"
   xmlns:svg="http://www.w3.org/2000/svg"><defs
     id="defs1"><linearGradient
       id="swatch162"
       gradientTransform="translate(-445.60937,787.19531)"><stop
         style="stop-color:#dc2626;stop-opacity:1;"
         offset="0"
         id="stop162" /></linearGradient><linearGradient
       id="swatch37"
       gradientTransform="translate(-86,3.5)"><stop
         style="stop-color:#1a6de8;stop-opacity:1;"
         offset="0"
         id="stop37" /></linearGradient><linearGradient
       id="swatch18"
       gradientTransform="matrix(1,0,0,0.57573593,91.873629,132.32583)"><stop
         style="stop-color:#2e2e2e;stop-opacity:1;"
         offset="0"
         id="stop18" /></linearGradient><linearGradient
       id="swatch17"><stop
         style="stop-color:#fafafa;stop-opacity:1;"
         offset="0"
         id="stop17" /></linearGradient><linearGradient
       id="swatch12"
       gradientTransform="matrix(1.3653394,0,0,1.50615,936.14791,-1177.6613)"><stop
         style="stop-color:#7e7e7e;stop-opacity:1;"
         offset="0"
         id="stop12" /></linearGradient><linearGradient
       id="swatch7"><stop
         style="stop-color:#63c458;stop-opacity:1;"
         offset="0"
         id="stop7" /></linearGradient><linearGradient
       id="swatch6"><stop
         style="stop-color:#f7bd51;stop-opacity:1;"
         offset="0"
         id="stop6" /></linearGradient><linearGradient
       id="swatch5"><stop
         style="stop-color:#ed6b5e;stop-opacity:1;"
         offset="0"
         id="stop5" /></linearGradient><linearGradient
       id="swatch4"
       gradientTransform="matrix(0.91177579,0,0,0.91177579,385.36877,86.373439)"><stop
         style="stop-color:#eaeaec;stop-opacity:1;"
         offset="0"
         id="stop4" /></linearGradient><linearGradient
       id="swatch2"
       gradientTransform="matrix(0.51709503,0,0,0.51709503,-1388.7384,3899.5771)"><stop
         style="stop-color:#ffffff;stop-opacity:1;"
         offset="0"
         id="stop2" /></linearGradient><linearGradient
       id="swatch1"
       gradientTransform="matrix(1,0,0,0.62586603,0.21001578,1283.257)"><stop
         style="stop-color:#151419;stop-opacity:1;"
         offset="0"
         id="stop1" /></linearGradient><rect
       x="269.7601"
       y="279.71024"
       width="365.58466"
       height="145.23663"
       id="rect229-0-8" /><linearGradient
       xlink:href="#swatch12"
       id="linearGradient91"
       x1="2834.9746"
       y1="233.90576"
       x2="2881.1055"
       y2="233.90576"
       gradientUnits="userSpaceOnUse" /><linearGradient
       xlink:href="#swatch12"
       id="linearGradient92"
       x1="2812.6348"
       y1="247.27148"
       x2="2901.1621"
       y2="247.27148"
       gradientUnits="userSpaceOnUse" /><linearGradient
       xlink:href="#swatch12"
       id="linearGradient93"
       x1="2815.0068"
       y1="261.49097"
       x2="2900.8774"
       y2="261.49097"
       gradientUnits="userSpaceOnUse" /><linearGradient
       xlink:href="#swatch12"
       id="linearGradient94"
       x1="2835.5322"
       y1="245.3625"
       x2="2881.1777"
       y2="245.3625"
       gradientUnits="userSpaceOnUse" /><linearGradient
       xlink:href="#swatch5"
       id="linearGradient132"
       x1="2689.9778"
       y1="264.74435"
       x2="2713.126"
       y2="264.74435"
       gradientUnits="userSpaceOnUse" /><linearGradient
       xlink:href="#swatch5"
       id="linearGradient133"
       x1="2688.0708"
       y1="275.05167"
       x2="2691.7107"
       y2="275.05167"
       gradientUnits="userSpaceOnUse" /><linearGradient
       xlink:href="#swatch5"
       id="linearGradient135"
       gradientUnits="userSpaceOnUse"
       x1="2689.9778"
       y1="264.74435"
       x2="2713.126"
       y2="264.74435" /><linearGradient
       xlink:href="#swatch5"
       id="linearGradient136"
       gradientUnits="userSpaceOnUse"
       x1="2688.0708"
       y1="275.05167"
       x2="2691.7107"
       y2="275.05167" /><linearGradient
       xlink:href="#swatch1"
       id="linearGradient64"
       gradientUnits="userSpaceOnUse"
       x1="270.55978"
       y1="298.15283"
       x2="382.01578"
       y2="298.15283" /></defs><g
     id="layer2"
     transform="translate(-2499.2718,-176.35715)"><g
       id="g18"><path
         id="path142"
         style="fill:url(#swatch4);stroke-width:0.911775;stroke-dasharray:none"
         d="m 2539.1122,188.70281 a 39.839342,39.839342 0 0 0 -39.8403,39.84033 39.839342,39.839342 0 0 0 39.8403,39.83855 39.839342,39.839342 0 0 0 13.9081,-2.61601 35.04673,35.04673 0 0 0 0,0.007 35.04673,35.04673 0 0 0 35.0482,35.04638 35.04673,35.04673 0 0 0 35.0464,-35.04638 35.04673,35.04673 0 0 0 -35.0464,-35.04639 35.04673,35.04673 0 0 0 -9.3671,1.30891 39.839342,39.839342 0 0 0 0.2494,-3.49218 39.839342,39.839342 0 0 0 -39.8386,-39.84033 z" /><text
         xml:space="preserve"
         id="text229-6"
         style="font-style:normal;font-variant:normal;font-weight:normal;font-stretch:normal;font-size:96px;font-family:'Instrument Sans';-inkscape-font-specification:'Instrument Sans';letter-spacing:-6px;white-space:pre;shape-inside:url(#rect229-0-8);display:inline;fill:url(#linearGradient64)"
         transform="translate(2376.9838,-88.480037)"><tspan
           x="269.75977"
           y="368.03881"
           id="tspan1">Kami.js</tspan></text><g
         id="g136"
         transform="translate(-303.04325,7.8997086)"><g
           id="g94"
           transform="matrix(1.4046786,0,0,1.4046786,-1145.8272,-98.484202)"><path
             style="fill:url(#swatch2);stroke:url(#linearGradient92);stroke-width:1;stroke-dasharray:none"
             d="m 2835.1016,216.61035 -22.4668,21.69824 46.0068,39.62403 42.5205,-39.61621 -21.1523,-20.32227"
             id="path91" /><path
             style="fill:url(#swatch2);stroke:url(#linearGradient91);stroke-width:1;stroke-dasharray:none"
             d="m 2834.9746,213.98926 22.0693,-23.24512 24.0616,22.81348 -22.7608,63.50976 z"
             id="path90" /><path
             style="fill:none;stroke:url(#linearGradient93);stroke-width:1;stroke-dasharray:none"
             d="m 2815.0068,240.7168 43.6568,43.59228 42.2138,-45.63623"
             id="path92" /><path
             style="fill:url(#swatch2);stroke:url(#linearGradient94);stroke-width:1;stroke-dasharray:none"
             d="m 2835.5322,214.30713 20.4522,-0.0103 2.7187,62.61572 1.3824,-63.1001 21.0922,0.22852"
             id="path93" /></g><g
           id="g133"
           transform="matrix(1.5610939,0,0,1.5610939,-1378.2147,-190.03341)"><path
             style="fill:none;stroke:url(#linearGradient132);stroke-width:1;stroke-dasharray:none"
             d="m 2689.9778,273.74838 c 0,0 1.5738,-19.63326 23.1481,-17.89968"
             id="path132" /><path
             style="fill:url(#linearGradient133);stroke-width:1;stroke-dasharray:none"
             d="m 2688.0709,273.44765 3.6398,0.29762 -1.7848,2.91043 z"
             id="path133" /></g><g
           id="g135"
           transform="matrix(-1.5610939,0,0,1.5610939,7111.9899,-189.10118)"><path
             style="fill:none;stroke:url(#linearGradient135);stroke-width:1;stroke-dasharray:none"
             d="m 2689.9778,273.74838 c 0,0 1.5738,-19.63326 23.1481,-17.89968"
             id="path134" /><path
             style="fill:url(#linearGradient136);stroke-width:1;stroke-dasharray:none"
             d="m 2688.0709,273.44765 3.6398,0.29762 -1.7848,2.91043 z"
             id="path135" /></g></g></g></g></svg>
